<?xml version="1.0" encoding="UTF-8"?>
<svg xmlns="http://www.w3.org/2000/svg" xmlns:xlink="http://www.w3.org/1999/xlink" width="20px" height="20px" viewBox="0 0 20 20" version="1.1">
<g id="surface1">
<path style=" stroke:none;fill-rule:nonzero;fill:rgb(0%,0%,0%);fill-opacity:1;" d="M 16.132812 0.90625 C 15.410156 0.960938 14.808594 1.195312 14.289062 1.625 C 13.9375 1.921875 13.628906 2.34375 13.453125 2.769531 C 13.421875 2.851562 13.355469 3.039062 13.3125 3.191406 C 12.828125 4.800781 12.070312 6.140625 10.949219 7.375 C 10.828125 7.507812 8.792969 9.46875 6.039062 12.105469 C 3.453125 14.585938 1.300781 16.648438 1.261719 16.691406 C 0.980469 16.996094 0.847656 17.382812 0.890625 17.789062 C 0.953125 18.367188 1.355469 18.832031 1.914062 18.96875 C 2.101562 19.015625 2.441406 19.023438 2.59375 18.976562 C 2.738281 18.9375 2.960938 18.828125 3.0625 18.746094 C 3.113281 18.710938 5.101562 16.800781 7.484375 14.507812 C 12.34375 9.832031 12.082031 10.078125 12.390625 9.816406 C 13.144531 9.167969 13.90625 8.664062 14.808594 8.210938 C 15.742188 7.746094 16.453125 7.519531 17.433594 7.375 C 17.613281 7.347656 17.78125 7.320312 17.808594 7.3125 C 17.914062 7.277344 18 7.121094 17.976562 7.011719 C 17.96875 6.984375 17.859375 6.746094 17.734375 6.484375 L 17.5 6.007812 L 17.910156 5.59375 C 18.15625 5.34375 18.355469 5.128906 18.410156 5.054688 C 18.582031 4.808594 18.722656 4.535156 18.8125 4.265625 C 18.859375 4.128906 19.109375 3.070312 19.109375 3.011719 C 19.109375 2.960938 19.0625 2.882812 19.015625 2.855469 C 18.921875 2.796875 18.917969 2.800781 17.824219 3.34375 L 16.785156 3.863281 L 16.597656 3.828125 C 16.492188 3.808594 16.398438 3.789062 16.390625 3.78125 C 16.382812 3.777344 16.339844 3.695312 16.289062 3.597656 L 16.203125 3.421875 L 16.203125 2.757812 L 17.160156 2.210938 C 17.925781 1.773438 18.125 1.652344 18.152344 1.609375 C 18.21875 1.507812 18.1875 1.339844 18.089844 1.273438 C 18.027344 1.234375 17.355469 1.019531 17.164062 0.976562 C 16.832031 0.910156 16.449219 0.882812 16.132812 0.90625 Z M 16.90625 1.148438 C 16.992188 1.164062 17.132812 1.191406 17.21875 1.210938 C 17.441406 1.269531 17.96875 1.453125 17.96875 1.476562 C 17.96875 1.484375 17.539062 1.738281 17.015625 2.039062 C 16.492188 2.339844 16.046875 2.597656 16.03125 2.613281 C 16 2.640625 16 2.667969 16 3.0625 L 16 3.484375 L 16.882812 5.261719 C 17.367188 6.238281 17.765625 7.046875 17.765625 7.054688 C 17.765625 7.09375 17.722656 7.109375 17.484375 7.140625 C 16.386719 7.296875 15.605469 7.542969 14.601562 8.0625 C 13.574219 8.589844 12.664062 9.234375 11.835938 10.015625 C 11.75 10.09375 9.730469 12.039062 7.34375 14.335938 C 4.960938 16.628906 2.976562 18.535156 2.929688 18.570312 C 2.828125 18.648438 2.707031 18.707031 2.5625 18.75 C 2.394531 18.804688 2.121094 18.804688 1.953125 18.75 C 1.59375 18.640625 1.328125 18.398438 1.191406 18.0625 C 1.046875 17.703125 1.105469 17.277344 1.335938 16.957031 C 1.371094 16.910156 3.53125 14.828125 6.140625 12.324219 C 8.839844 9.730469 10.972656 7.671875 11.09375 7.539062 C 12.230469 6.300781 13.011719 4.929688 13.507812 3.296875 C 13.65625 2.792969 13.769531 2.554688 13.988281 2.261719 C 14.496094 1.585938 15.179688 1.210938 16.085938 1.117188 C 16.222656 1.105469 16.75 1.125 16.90625 1.148438 Z M 18.773438 3.554688 C 18.632812 4.121094 18.578125 4.296875 18.460938 4.53125 C 18.296875 4.867188 18.160156 5.039062 17.714844 5.484375 L 17.394531 5.800781 L 16.953125 4.921875 C 16.710938 4.4375 16.515625 4.039062 16.519531 4.039062 C 16.523438 4.035156 16.589844 4.046875 16.675781 4.0625 L 16.824219 4.09375 L 17.855469 3.582031 C 18.421875 3.296875 18.882812 3.066406 18.886719 3.070312 C 18.886719 3.070312 18.835938 3.289062 18.773438 3.554688 Z M 18.773438 3.554688 "/>
<path style=" stroke:none;fill-rule:nonzero;fill:rgb(0%,0%,0%);fill-opacity:1;" d="M 16.042969 1.273438 C 15.628906 1.328125 15.179688 1.496094 14.835938 1.714844 C 14.644531 1.835938 14.59375 1.886719 14.59375 1.945312 C 14.59375 1.972656 14.605469 2.007812 14.621094 2.019531 C 14.675781 2.070312 14.730469 2.054688 14.902344 1.9375 C 15.261719 1.695312 15.6875 1.539062 16.144531 1.476562 C 16.289062 1.457031 16.691406 1.464844 16.851562 1.492188 C 17.121094 1.539062 17.167969 1.539062 17.203125 1.507812 C 17.242188 1.472656 17.242188 1.40625 17.207031 1.363281 C 17.128906 1.273438 16.441406 1.21875 16.042969 1.273438 Z M 16.042969 1.273438 "/>
<path style=" stroke:none;fill-rule:nonzero;fill:rgb(0%,0%,0%);fill-opacity:1;" d="M 14.277344 2.175781 C 14.078125 2.390625 13.8125 2.773438 13.8125 2.855469 C 13.8125 2.898438 13.863281 2.953125 13.910156 2.953125 C 13.964844 2.953125 14.007812 2.914062 14.0625 2.820312 C 14.132812 2.699219 14.273438 2.511719 14.414062 2.355469 C 14.539062 2.214844 14.550781 2.175781 14.507812 2.113281 C 14.488281 2.085938 14.46875 2.078125 14.425781 2.078125 C 14.375 2.078125 14.359375 2.089844 14.277344 2.175781 Z M 14.277344 2.175781 "/>
<path style=" stroke:none;fill-rule:nonzero;fill:rgb(0%,0%,0%);fill-opacity:1;" d="M 14.429688 4.796875 C 14.101562 4.988281 13.820312 5.15625 13.804688 5.171875 C 13.785156 5.1875 13.75 5.210938 13.71875 5.21875 C 13.6875 5.230469 13.652344 5.25 13.636719 5.261719 C 13.601562 5.292969 13.601562 5.378906 13.632812 5.414062 C 13.664062 5.445312 13.71875 5.460938 13.734375 5.441406 C 13.738281 5.433594 13.765625 5.421875 13.789062 5.414062 C 13.839844 5.40625 13.84375 5.40625 13.902344 5.515625 L 13.964844 5.621094 L 13.917969 5.640625 C 13.890625 5.652344 13.855469 5.671875 13.839844 5.683594 C 13.800781 5.71875 13.804688 5.800781 13.84375 5.835938 C 13.871094 5.859375 13.882812 5.863281 13.949219 5.847656 C 13.992188 5.835938 14.035156 5.828125 14.046875 5.820312 C 14.070312 5.8125 14.085938 5.835938 14.132812 5.914062 C 14.164062 5.96875 14.1875 6.019531 14.1875 6.027344 C 14.1875 6.035156 14.164062 6.046875 14.140625 6.054688 C 14.027344 6.089844 14 6.210938 14.09375 6.25 C 14.140625 6.269531 14.1875 6.261719 14.289062 6.226562 C 14.304688 6.21875 14.421875 6.402344 14.421875 6.433594 C 14.421875 6.441406 14.394531 6.457031 14.363281 6.46875 C 14.289062 6.492188 14.265625 6.511719 14.25 6.558594 C 14.238281 6.585938 14.242188 6.609375 14.257812 6.632812 C 14.289062 6.683594 14.363281 6.691406 14.457031 6.65625 C 14.503906 6.640625 14.539062 6.628906 14.542969 6.636719 C 14.546875 6.644531 14.570312 6.683594 14.597656 6.726562 C 14.6875 6.867188 14.65625 6.878906 15.324219 6.484375 C 15.652344 6.296875 15.960938 6.125 16.015625 6.109375 C 16.152344 6.0625 16.195312 5.976562 16.125 5.90625 C 16.097656 5.878906 16.078125 5.875 16.019531 5.878906 L 15.945312 5.882812 L 15.890625 5.78125 L 15.828125 5.679688 L 15.878906 5.660156 C 15.9375 5.632812 15.953125 5.617188 15.953125 5.554688 C 15.953125 5.460938 15.863281 5.429688 15.746094 5.476562 C 15.726562 5.484375 15.707031 5.460938 15.660156 5.378906 L 15.597656 5.273438 L 15.644531 5.257812 C 15.71875 5.230469 15.757812 5.171875 15.738281 5.117188 C 15.730469 5.089844 15.707031 5.058594 15.683594 5.046875 C 15.640625 5.023438 15.636719 5.023438 15.507812 5.074219 C 15.496094 5.078125 15.460938 5.03125 15.425781 4.96875 L 15.359375 4.859375 L 15.421875 4.84375 C 15.507812 4.816406 15.535156 4.78125 15.527344 4.710938 C 15.523438 4.660156 15.515625 4.644531 15.480469 4.628906 C 15.441406 4.609375 15.421875 4.609375 15.34375 4.636719 L 15.25 4.667969 L 15.195312 4.570312 C 15.140625 4.46875 15.117188 4.453125 15.054688 4.453125 C 15.039062 4.453125 14.753906 4.609375 14.429688 4.796875 Z M 15.21875 5.046875 C 15.25 5.105469 15.277344 5.15625 15.273438 5.15625 C 15.273438 5.15625 15.023438 5.242188 14.726562 5.351562 C 14.289062 5.507812 14.179688 5.542969 14.164062 5.527344 C 14.152344 5.515625 14.121094 5.46875 14.09375 5.417969 C 14.046875 5.332031 14.046875 5.324219 14.070312 5.316406 C 14.089844 5.3125 14.335938 5.226562 14.617188 5.125 C 14.902344 5.023438 15.136719 4.941406 15.144531 4.9375 C 15.148438 4.9375 15.179688 4.984375 15.21875 5.046875 Z M 15.445312 5.449219 C 15.476562 5.503906 15.496094 5.554688 15.492188 5.5625 C 15.476562 5.578125 14.429688 5.953125 14.410156 5.953125 C 14.402344 5.953125 14.371094 5.90625 14.339844 5.84375 L 14.28125 5.738281 L 14.371094 5.703125 C 14.535156 5.644531 15.382812 5.347656 15.382812 5.347656 C 15.386719 5.351562 15.414062 5.398438 15.445312 5.449219 Z M 15.734375 5.964844 C 15.734375 5.976562 14.675781 6.359375 14.648438 6.359375 C 14.632812 6.359375 14.511719 6.15625 14.519531 6.148438 C 14.523438 6.144531 14.773438 6.054688 15.070312 5.945312 L 15.617188 5.753906 L 15.675781 5.855469 C 15.707031 5.910156 15.734375 5.960938 15.734375 5.964844 Z M 15.734375 5.964844 "/>
<path style=" stroke:none;fill-rule:nonzero;fill:rgb(0%,0%,0%);fill-opacity:1;" d="M 6.96875 12.039062 C 4.488281 14.355469 2.433594 16.277344 2.398438 16.3125 C 2.351562 16.359375 2.339844 16.386719 2.339844 16.421875 C 2.339844 16.484375 2.390625 16.53125 2.460938 16.53125 C 2.667969 16.53125 2.980469 16.699219 3.136719 16.898438 C 3.257812 17.046875 3.316406 17.199219 3.34375 17.40625 C 3.351562 17.46875 3.367188 17.527344 3.375 17.539062 C 3.386719 17.550781 3.421875 17.5625 3.453125 17.5625 C 3.507812 17.5625 3.660156 17.421875 7.5625 13.71875 C 9.792969 11.601562 11.625 9.855469 11.632812 9.835938 C 11.664062 9.746094 11.558594 9.65625 11.480469 9.707031 C 11.460938 9.71875 9.664062 11.421875 7.492188 13.484375 C 5.320312 15.546875 3.542969 17.234375 3.539062 17.230469 C 3.539062 17.230469 3.523438 17.1875 3.507812 17.140625 C 3.398438 16.804688 3.144531 16.53125 2.8125 16.398438 L 2.6875 16.347656 L 3.277344 15.792969 C 3.601562 15.488281 5.59375 13.628906 7.703125 11.65625 C 9.8125 9.6875 11.5625 8.050781 11.589844 8.023438 C 11.621094 7.992188 11.640625 7.953125 11.640625 7.929688 C 11.640625 7.875 11.589844 7.828125 11.527344 7.828125 C 11.480469 7.828125 11.039062 8.238281 6.96875 12.039062 Z M 6.96875 12.039062 "/>
<path style=" stroke:none;fill-rule:nonzero;fill:rgb(0%,0%,0%);fill-opacity:1;" d="M 2.195312 16.742188 C 1.945312 16.78125 1.726562 16.917969 1.585938 17.121094 C 1.253906 17.609375 1.472656 18.277344 2.023438 18.46875 C 2.15625 18.515625 2.382812 18.527344 2.523438 18.492188 C 2.917969 18.398438 3.203125 18.042969 3.203125 17.636719 C 3.203125 17.375 3.125 17.179688 2.9375 17 C 2.8125 16.875 2.707031 16.8125 2.5625 16.773438 C 2.46875 16.75 2.269531 16.734375 2.195312 16.742188 Z M 2.472656 16.976562 C 2.703125 17.035156 2.871094 17.191406 2.953125 17.417969 C 2.984375 17.5 2.988281 17.539062 2.980469 17.660156 C 2.976562 17.78125 2.96875 17.820312 2.925781 17.910156 C 2.859375 18.050781 2.738281 18.171875 2.597656 18.238281 C 2.5 18.285156 2.480469 18.289062 2.320312 18.289062 C 2.152344 18.289062 2.144531 18.289062 2.027344 18.230469 C 1.761719 18.097656 1.605469 17.804688 1.652344 17.53125 C 1.722656 17.136719 2.101562 16.878906 2.472656 16.976562 Z M 2.472656 16.976562 "/>
</g>
</svg>
